<svg width="239" height="239" viewBox="0 0 239 239" fill="none" xmlns="http://www.w3.org/2000/svg">
<path d="M49.9524 168.446C61.6299 140.763 83.4962 117.513 110.412 104.159C113.663 102.547 116.98 101.075 120.298 99.6029C142.913 89.569 165.53 79.5338 188.475 69.9766C186.572 74.7262 184.629 79.4618 182.647 84.1783C175.213 101.874 166.67 120.063 151.494 131.813C134.315 145.114 111.603 147.993 90.6138 153.604C76.3778 157.411 62.5272 162.664 49.9507 168.446L49.9524 168.446Z" stroke="#E2B162" stroke-opacity="0.2" stroke-linecap="round" stroke-linejoin="round"/>
<path d="M50.515 167.982C71.461 153.329 92.4087 138.676 113.354 124.024C117.955 120.806 124.47 115.777 129.382 113.056C132.108 111.545 134.923 110.194 137.614 108.622C146.107 103.659 153.25 96.5672 161.951 91.9778C165.078 90.3279 169.162 89.1462 172.168 87.286C178.797 83.1849 183.547 76.7149 188.128 70.4077" stroke="#E2B162" stroke-opacity="0.2" stroke-linecap="round" stroke-linejoin="round"/>
</svg>
