<svg width="239" height="239" viewBox="0 0 239 239" fill="none" xmlns="http://www.w3.org/2000/svg">
<path d="M188.473 168.446C176.796 140.763 154.93 117.512 128.014 104.159C124.763 102.546 121.445 101.074 118.128 99.6024C95.5129 89.5686 72.896 79.5333 49.9508 69.9761C51.8536 74.7257 53.7966 79.4613 55.7789 84.1778C63.2129 101.874 71.756 120.062 86.9323 131.813C104.111 145.113 126.823 147.992 147.812 153.604C162.048 157.411 175.899 162.664 188.475 168.446L188.473 168.446Z" stroke="#E2B162" stroke-opacity="0.2" stroke-linecap="round" stroke-linejoin="round"/>
<path d="M187.911 167.982C166.965 153.328 146.017 138.676 125.072 124.024C120.47 120.805 113.956 115.776 109.044 113.055C106.317 111.545 103.503 110.193 100.812 108.622C92.3184 103.658 85.176 96.5667 76.4745 91.9773C73.3483 90.3274 69.2642 89.1457 66.2583 87.2855C59.6284 83.1844 54.8784 76.7144 50.298 70.4072" stroke="#E2B162" stroke-opacity="0.2" stroke-linecap="round" stroke-linejoin="round"/>
</svg>
