<svg width="172" height="46" viewBox="0 0 172 46" fill="none" xmlns="http://www.w3.org/2000/svg">
<path d="M6.75706 6.80586V38.3057H10.5652C12.7149 38.3057 14.0053 37.1715 14.0053 34.0216V11.0891C14.0053 7.93929 12.7149 6.80586 10.5652 6.80586H6.75706ZM0 0.505371H10.6883C17.4445 0.505371 20.7615 4.3481 20.7615 11.4045V33.7063C20.7615 40.7626 17.4445 44.6054 10.6883 44.6054H0V0.505371Z" fill="#D71D45"/>
<path d="M36.1002 8.31767L39.3566 30.6194H32.8446L36.1002 8.31767ZM31.4936 0.505371L24.6133 44.6054H30.8172L31.9854 36.6037H40.2773L41.4448 44.6054H48.2635L41.3832 0.505371H31.4936Z" fill="#D71D45"/>
<path d="M88.8424 8.31767L92.0988 30.6194H85.5868L88.8424 8.31767ZM84.2358 0.505371L77.3555 44.6054H83.5593L84.7267 36.6037H93.0194L94.1862 44.6054H101.005L94.1254 0.505371H84.2358Z" fill="#D71D45"/>
<path d="M123.824 0.505859L119.217 31.8174L114.242 0.505859H104.844V44.6059H110.74V13.4205L115.777 44.6059H122.166L126.834 12.9798V44.6059H133.222V0.505859H123.824Z" fill="#D71D45"/>
<path d="M146.464 0.505859H139.707V44.6059H146.464V0.505859Z" fill="#D71D45"/>
<path d="M161.851 0C168.423 0 171.802 4.03192 171.802 11.0883V12.4739H165.414V10.6467C165.414 7.4969 164.185 6.29963 162.035 6.29963C159.885 6.29963 158.656 7.4969 158.656 10.6467C158.656 19.7186 171.863 21.4198 171.863 34.0197C171.863 41.0763 168.423 45.108 161.789 45.108C155.155 45.108 151.715 41.0763 151.715 34.0197V31.3107H158.104V34.4605C158.104 37.6111 159.455 38.7446 161.605 38.7446C163.755 38.7446 165.106 37.6111 165.106 34.4605C165.106 25.3886 151.899 23.6884 151.899 11.0883C151.899 4.03192 155.278 0 161.851 0Z" fill="#D71D45"/>
<path d="M59.7055 20.3497V6.80537H62.961C65.3566 6.80537 66.4011 8.19098 66.4011 11.3408V15.6881C66.4011 19.2163 64.8656 20.3497 62.3471 20.3497H59.7055ZM66.4625 32.2569V44.5347H73.2198V32.4461C73.2198 27.8466 72.1138 24.5076 68.7352 23.059C71.7458 21.6102 73.1584 18.6487 73.1584 14.1131V10.6481C73.1584 3.84389 70.1487 0.504883 63.1455 0.504883H52.9492V44.6049H59.7055V26.6502H62.0404C65.1115 26.6502 66.4625 28.162 66.4625 32.2569Z" fill="#D71D45"/>
</svg>
